<?xml version="1.0" encoding="UTF-8" standalone="no"?>
<!-- Created with Inkscape (http://www.inkscape.org/) -->

<svg
   width="325.50336mm"
   height="381.70959mm"
   viewBox="0 0 325.50336 381.70959"
   version="1.1"
   id="svg1"
   xml:space="preserve"
   xmlns="http://www.w3.org/2000/svg"
   xmlns:svg="http://www.w3.org/2000/svg"><defs
     id="defs1" /><g
     id="layer1"
     transform="translate(52.930892,13.709243)"><path
       style="fill:#f5f0e8"
       d="m -18.292758,367.67577 c 0,-0.17327 0.23812,-0.40641 0.52917,-0.51809 0.43141,-0.16555 0.52916,-1.0197 0.52916,-4.62386 0,-3.69441 -0.087,-4.42079 -0.52916,-4.42079 -0.29105,0 -0.52917,-0.15875 -0.52917,-0.35278 0,-0.20558 1.16937,-0.35278 2.80255,-0.35278 2.44044,0 2.92824,0.10812 3.77536,0.83678 0.752,0.64684 0.96451,1.12964 0.93624,2.127 -0.0201,0.70962 -0.25059,1.54828 -0.51217,1.8637 -0.59771,0.72074 -2.48325,1.52252 -3.58047,1.52252 -0.88559,0 -1.04088,0.46865 -0.7253,2.18887 0.0971,0.52916 0.47839,1.05043 0.85608,1.1703 1.35968,0.43155 0.63277,0.87417 -1.43562,0.87417 -1.16417,0 -2.11667,-0.14177 -2.11667,-0.31504 z m 5.35208,-5.56047 c 1.46844,-1.32892 0.20331,-4.16188 -1.75748,-3.93545 -0.86718,0.10015 -0.95817,0.25741 -1.05806,1.82863 -0.0601,0.94549 -0.0254,1.93768 0.0771,2.20486 0.25743,0.67085 1.956,0.61003 2.73842,-0.098 z m 5.9368101,5.56047 c 0,-0.17327 0.23812,-0.40641 0.52916,-0.51809 0.43142,-0.16555 0.52917,-1.0197 0.52917,-4.62386 0,-3.69441 -0.087,-4.42079 -0.52917,-4.42079 -0.29104,0 -0.52916,-0.15875 -0.52916,-0.35278 0,-0.60587 5.72104,-0.43626 6.62427996,0.19639 1.24269,0.87042 1.09295,3.0385 -0.28429,4.11636 l -1.06834996,0.8361 1.42421996,1.9889 c 0.78332,1.09389 1.74032004,2.08922 2.12668004,2.21184 1.03046,0.32706 0.85606,0.88097 -0.27738,0.88097 -1.40257004,0 -2.42100004,-0.8441 -3.65363,-3.0282 -1.42743,-2.52927 -2.06931,-2.51665 -2.06931,0.0407 0,1.4091 0.14705,2.00777 0.52917,2.15441 1.12456,0.43153 0.44436,0.83313 -1.41112,0.83313 -1.06715,0 -1.94027,-0.14177 -1.94027,-0.31504 z m 5.37986,-6.31578 c 1.30641996,-1.13021 0.29335,-3.24696 -1.55398,-3.24696 -0.97757,0 -1.00366,0.0489 -1.00366,1.88148 0,1.03482 0.0886,1.97005 0.19682,2.0783 0.29986,0.29986 1.66762,-0.11312 2.36082,-0.71282 z m 9.54212,5.96031 c -1.893,-1.18905 -2.83677,-3.74912 -2.22274,-6.02945 1.0645,-3.95326 5.4658699,-5.47294 8.4873899,-2.93048 2.532,2.13052 2.4541,6.10053 -0.1677,8.54994 -1.29132,1.20644 -4.4868699,1.42133 -6.0969499,0.40999 z m 5.1773499,-1.08441 c 0.9135,-0.91349 1.1914,-2.1214 0.9842,-4.27793 -0.341,-3.54925 -3.3636,-5.03858 -5.6287099,-2.77347 -1.01321,1.0132 -1.06359,1.19508 -0.92667,3.34527 0.12221,1.91938 0.30374,2.43973 1.16459,3.33826 1.24992,1.30463 3.2988099,1.47567 4.4065899,0.36787 z m 7.0646,1.43988 c 0,-0.17327 0.2381,-0.40641 0.5291,-0.51809 0.4314,-0.16555 0.5292,-1.0197 0.5292,-4.62386 0,-3.69441 -0.087,-4.42079 -0.5292,-4.42079 -0.291,0 -0.5291,-0.14854 -0.5291,-0.33008 0,-0.18155 1.6633,-0.37998 3.6962,-0.44097 l 3.6963,-0.1109 0.22,1.00501 c 0.3051,1.39391 -0.4162,2.05703 -0.8879,0.81633 -0.3273,-0.86088 -0.5201,-0.93939 -2.3062,-0.93939 h -1.949 v 1.94028 1.94027 h 1.5875 c 1.147,0 1.5875,-0.14104 1.5875,-0.50834 0,-0.27959 0.1587,-0.60646 0.3528,-0.72638 0.219,-0.13536 0.3528,0.52551 0.3528,1.74307 0,1.0786 -0.1588,1.9611 -0.3528,1.9611 -0.1941,0 -0.3528,-0.3175 -0.3528,-0.70556 0,-0.60103 -0.2352,-0.70555 -1.5875,-0.70555 h -1.5875 v 1.93355 c 0,1.76682 0.076,1.9526 0.8795,2.1543 0.4837,0.12141 0.7919,0.36256 0.6847,0.53589 -0.2542,0.41131 -4.0336,0.41142 -4.0336,1.1e-4 z m 11.1442,0.0137 c -0.1101,-0.17818 0.1155,-0.40653 0.5014,-0.50743 0.651,-0.17024 0.7016,-0.48812 0.7016,-4.4068 0,-3.98051 -0.046,-4.25517 -0.7938,-4.77703 -0.7421,-0.5177 -0.5362,-0.55489 3.1683,-0.57219 l 3.962,-0.0185 0.2279,0.90778 c 0.3302,1.31563 -0.4384,1.94645 -0.8981,0.73717 -0.3273,-0.86088 -0.5201,-0.93939 -2.3062,-0.93939 h -1.949 v 1.94028 1.94027 h 1.5463 c 1.2979,0 1.5791,-0.12507 1.7499,-0.77834 0.3069,-1.1733 0.7286,-0.4505 0.7723,1.32335 0.027,1.08677 -0.1052,1.57166 -0.4275,1.57166 -0.2563,0 -0.466,-0.23812 -0.466,-0.52917 0,-0.39197 -0.4116,-0.52916 -1.5875,-0.52916 h -1.5875 v 1.94028 1.94027 h 2.0872 c 1.8702,0 2.1607,-0.10083 2.7935,-0.96949 0.875,-1.20123 1.256,-0.90273 0.8502,0.66622 l -0.3065,1.18522 -3.9191,0.0995 c -2.1555,0.0547 -4.0093,-0.0463 -4.1194,-0.22448 z m 13.1974,0.0442 c -0.719,-0.2737 -1.0465,-0.82463 -1.0529,-1.77134 -0.01,-1.02302 0.783,-1.02621 1.2338,-0.005 0.8444,1.91251 4.0525,1.58973 4.0525,-0.40774 0,-0.91954 -0.2604,-1.18396 -2.1653,-2.19927 -3.1272,-1.6668 -3.7559,-3.48595 -1.83,-5.29523 0.6929,-0.65098 1.2724,-0.82403 2.7596,-0.82403 1.0353,0 1.963,0.0806 2.0614,0.17903 0.099,0.0985 0.2308,0.63743 0.294,1.19771 0.1445,1.28028 -0.6044,1.61225 -0.908,0.40252 -0.1926,-0.76728 -0.4224,-0.89731 -1.5864,-0.89731 -1.6008,0 -2.3227,0.6873 -2.014,1.91735 0.1527,0.60861 0.8752,1.21645 2.4166,2.03305 2.3559,1.24817 3.0251,2.25797 2.6051,3.93114 -0.1308,0.52143 -0.6841,1.15877 -1.2679,1.46065 -1.0141,0.52445 -3.549,0.67794 -4.5985,0.27845 z m 10.4952,-0.1239 c -0.3673,-0.21388 -0.6174,-0.78131 -0.6174,-1.40038 0,-1.25613 0.5994,-1.3659 1.0459,-0.19154 0.437,1.14945 2.1959,1.53596 3.3998,0.74712 1.1879,-0.77837 0.9912,-1.91691 -0.4882,-2.82556 -3.003,-1.84441 -3.4418,-2.20891 -3.7648,-3.12728 -0.7556,-2.14865 1.9452,-4.16287 4.8511,-3.61774 1.2071,0.22646 1.3062,0.33755 1.3062,1.46379 0,1.43256 -0.4287,1.5778 -0.9941,0.33679 -0.3113,-0.68306 -0.6661,-0.88194 -1.5736,-0.88194 -2.7465,0 -2.7208,2.8533 0.033,3.69357 1.3756,0.41968 3.24,2.28947 3.24,3.24928 0,0.49401 -0.4473,1.31989 -1.0311,1.90373 -0.8858,0.88577 -1.2963,1.02968 -2.9105,1.02047 -1.0335,-0.006 -2.157,-0.17254 -2.4965,-0.37031 z m 9.9659,0.15534 c 0,-0.12413 0.2275,-0.40194 0.5056,-0.61736 0.5325,-0.41252 0.7567,-2.85992 0.6256,-6.82986 -0.056,-1.69233 -0.1958,-2.20486 -0.602,-2.20486 -0.291,0 -0.5292,-0.15875 -0.5292,-0.35278 0,-0.19403 0.8732,-0.35278 1.9403,-0.35278 1.0672,0 1.9403,0.15875 1.9403,0.35278 0,0.19403 -0.2381,0.35278 -0.5292,0.35278 -0.4422,0 -0.5291,0.72638 -0.5291,4.42079 0,3.60416 0.098,4.45831 0.5291,4.62386 1.1246,0.43153 0.4444,0.83313 -1.4111,0.83313 -1.0671,0 -1.9403,-0.10156 -1.9403,-0.2257 z m 10.3379,-0.46434 c -1.732,-1.05608 -2.3759,-2.30394 -2.3889,-4.62989 -0.012,-2.17913 0.5694,-3.33266 2.3513,-4.66304 1.305,-0.97434 3.7054,-1.13776 5.2149,-0.35503 4.8988,2.54022 3.0677,10.34114 -2.4264,10.33668 -0.9863,-8e-4 -2.066,-0.27112 -2.7509,-0.68872 z m 4.9059,-0.84924 c 1.3233,-1.0054 1.7293,-3.89385 0.8449,-6.01067 -1.046,-2.50338 -3.7107,-3.12833 -5.2976,-1.24243 -1.5541,1.84699 -1.0954,6.27092 0.7624,7.353 0.8655,0.50411 2.9703,0.44713 3.6903,-0.0999 z m 6.9812,1.27136 c 0,-0.14736 0.3175,-0.4662 0.7056,-0.70855 0.6396,-0.39943 0.7055,-0.82268 0.7055,-4.52761 0,-3.79029 -0.051,-4.10037 -0.7055,-4.27148 -1.1906,-0.31134 -0.7834,-0.80778 0.6626,-0.80778 1.3203,0 1.4576,0.12019 3.9292,3.43959 1.4086,1.89177 2.6979,3.59039 2.8652,3.77472 0.1725,0.19013 0.3041,-1.08342 0.3041,-2.94344 0,-2.9819 -0.064,-3.29528 -0.7056,-3.46309 -1.3187,-0.34486 -0.7122,-0.80778 1.0584,-0.80778 0.9701,0 1.7639,0.15875 1.7639,0.35278 0,0.19403 -0.2382,0.35278 -0.5292,0.35278 -0.4453,0 -0.5292,0.78682 -0.5292,4.96475 0,4.16047 -0.083,4.94628 -0.5129,4.8507 -0.2821,-0.0627 -1.8696,-1.92729 -3.5278,-4.14345 l -3.0148,-4.02939 v 3.59949 c 0,2.87411 0.1066,3.64041 0.5291,3.80255 1.0874,0.41725 0.471,0.83313 -1.2347,0.83313 -0.9701,0 -1.7639,-0.12057 -1.7639,-0.26792 z m 13.758398,0.0311 c 0,-0.13024 0.2287,-0.48954 0.5082,-0.79844 0.2796,-0.30889 1.2496,-2.46452 2.1556,-4.79027 1.6416,-4.21388 2.1059,-5.11059 2.6461,-5.11059 0.1566,0 1.1031,2.10343 2.1033,4.6743 1.0002,2.57087 2.0433,4.92493 2.318,5.23125 0.7924,0.8838 0.6123,1.03056 -1.2646,1.03056 -1.8315,0 -2.1025,-0.17888 -1.2772,-0.84306 0.4136,-0.33277 0.4123,-0.56668 -0.01,-1.55556 -0.4863,-1.14393 -0.5292,-1.16208 -2.5034,-1.05833 -1.9546,0.10272 -2.018,0.13818 -2.3546,1.31706 -0.2539,0.88903 -0.2336,1.24898 0.076,1.35231 0.9348,0.31159 0.3373,0.78758 -0.9886,0.78758 -0.7762,0 -1.4112,-0.10657 -1.4112,-0.23681 z m 6.35,-4.14152 c 0,-0.6415 -1.5766,-4.05753 -1.772,-3.83938 -0.2114,0.23603 -1.403,3.52367 -1.403,3.87083 0,0.0625 0.7143,0.11354 1.5875,0.11354 0.8731,0 1.5875,-0.0652 1.5875,-0.14499 z m 7.0555,4.06329 c 0,-0.17327 0.2381,-0.40641 0.5292,-0.51809 0.4314,-0.16555 0.5292,-1.0197 0.5292,-4.62386 0,-3.69441 -0.087,-4.42079 -0.5292,-4.42079 -0.2911,0 -0.5292,-0.15875 -0.5292,-0.35278 0,-0.19599 0.9408,-0.35278 2.1167,-0.35278 1.1759,0 2.1167,0.15679 2.1167,0.35278 0,0.19403 -0.3175,0.35278 -0.7056,0.35278 -0.6679,0 -0.7056,0.23518 -0.7056,4.40972 v 4.40972 h 1.8837 c 1.6669,0 1.9299,-0.10149 2.2855,-0.88194 0.585,-1.28393 1.261,-1.13341 0.9902,0.22048 -0.1213,0.60634 -0.2205,1.24134 -0.2205,1.41112 0,0.16977 -1.7462,0.30868 -3.8805,0.30868 -2.1343,0 -3.8806,-0.14177 -3.8806,-0.31504 z m 17.7271,-0.0487 c -0.5785,-0.23253 -0.7937,-0.60915 -0.7937,-1.38875 0,-1.21666 0.8648,-1.49489 1.1583,-0.37265 0.3755,1.43599 3.5035,1.84657 4.0101,0.52637 0.4464,-1.16331 -0.2117,-2.15277 -1.9837,-2.98277 -2.0407,-0.95578 -2.6836,-1.57039 -3.0096,-2.8772 -0.1827,-0.73199 0,-1.1869 0.8255,-2.11667 0.9578,-1.07199 1.2421,-1.18429 2.998,-1.18429 1.0669,0 2.0169,0.0794 2.1113,0.17639 0.094,0.097 0.2266,0.63879 0.2939,1.20395 0.1498,1.25616 -0.4613,1.56375 -0.9398,0.47307 -0.2416,-0.55087 -0.708,-0.82955 -1.5183,-0.90734 -1.4607,-0.1402 -2.2494,0.48344 -2.1115,1.66957 0.083,0.71075 0.5691,1.15805 2.2035,2.0259 1.1536,0.61257 2.3045,1.39697 2.5576,1.74312 1.421,1.94326 -0.4688,4.39191 -3.3592,4.35271 -0.9068,-0.0123 -2.0058,-0.16594 -2.4424,-0.34141 z m 12.6336,-0.28085 c -1.5859,-0.8505 -2.4916,-2.60301 -2.4899,-4.81793 0,-2.23698 0.9185,-3.79748 2.793,-4.75378 2.7743,-1.41534 5.7445,-0.48714 7.0463,2.20202 0.9536,1.96992 0.9382,3.30021 -0.06,5.18763 -1.392,2.63221 -4.6383,3.60397 -7.2896,2.18206 z m 5.1095,-1.27963 c 0.4763,-0.47625 0.889,-1.30968 0.9172,-1.85208 0.2146,-4.12589 -0.942,-6.10145 -3.5719,-6.10145 -3.041,0 -4.2564,4.95274 -1.902,7.75073 1.1875,1.41124 3.2562,1.50332 4.5567,0.2028 z m 6.8631,1.60921 c 0,-0.17327 0.2382,-0.40641 0.5292,-0.51809 0.4314,-0.16555 0.5292,-1.0197 0.5292,-4.62386 0,-3.69441 -0.087,-4.42079 -0.5292,-4.42079 -0.291,0 -0.5292,-0.15875 -0.5292,-0.35278 0,-0.19599 0.9408,-0.35278 2.1167,-0.35278 1.1759,0 2.1167,0.15679 2.1167,0.35278 0,0.19403 -0.3175,0.35278 -0.7056,0.35278 -0.6679,0 -0.7055,0.23518 -0.7055,4.40972 v 4.40972 h 1.8836 c 1.6669,0 1.9299,-0.10149 2.2855,-0.88194 0.585,-1.28393 1.261,-1.13341 0.9902,0.22048 -0.1212,0.60634 -0.2204,1.24134 -0.2204,1.41112 0,0.16977 -1.7463,0.30868 -3.8806,0.30868 -2.1343,0 -3.8806,-0.14177 -3.8806,-0.31504 z m 13.6758,-0.71361 -1.1521,-1.02865 -0.1194,-3.91024 c -0.094,-3.07526 -0.2258,-3.91024 -0.6174,-3.91024 -0.2739,0 -0.498,-0.15875 -0.498,-0.35278 0,-0.19403 0.8732,-0.35278 1.9403,-0.35278 1.0672,0 1.9403,0.15875 1.9403,0.35278 0,0.19403 -0.2381,0.35278 -0.5292,0.35278 -0.4365,0 -0.5291,0.64391 -0.5291,3.67856 0,3.55383 0.032,3.70336 0.9295,4.40972 1.233,0.96992 2.438,0.92348 3.4962,-0.13475 0.8044,-0.80442 0.8659,-1.11752 0.8659,-4.40972 0,-3.30863 -0.047,-3.54381 -0.7055,-3.54381 -0.3881,0 -0.7056,-0.15875 -0.7056,-0.35278 0,-0.19403 0.7938,-0.35278 1.7639,-0.35278 1.7057,0 2.3221,0.41588 1.2347,0.83313 -0.4189,0.16075 -0.5291,0.90026 -0.5291,3.54892 0,1.84271 -0.1894,3.76143 -0.4215,4.27087 -0.9686,2.12574 -4.4419,2.61791 -6.3639,0.90177 z m 13.4881,0.71411 c 0,-0.17299 0.3969,-0.41414 0.882,-0.53589 0.8818,-0.22131 0.8819,-0.22203 0.8819,-4.62435 v -4.403 h -1.253 c -1.0752,0 -1.3055,0.15029 -1.6221,1.05833 -0.5296,1.51938 -1.0645,1.3039 -0.9375,-0.37767 l 0.1085,-1.436 4.3177,-0.0633 c 4.663,-0.0684 4.6781,-0.0622 4.6781,1.90583 0,1.33011 -0.5011,1.31645 -1.0583,-0.0289 -0.3648,-0.8806 -0.6386,-1.05833 -1.6303,-1.05833 h -1.192 v 4.403 c 0,4.39907 8e-4,4.4032 0.8795,4.62374 0.4838,0.12141 0.7919,0.36256 0.6848,0.53589 -0.2541,0.41111 -4.7393,0.41169 -4.7393,6.1e-4 z m 10.5834,-5e-4 c 0,-0.17327 0.2381,-0.40641 0.5291,-0.51809 0.4315,-0.16555 0.5292,-1.0197 0.5292,-4.62386 0,-3.69441 -0.087,-4.42079 -0.5292,-4.42079 -0.291,0 -0.5291,-0.15875 -0.5291,-0.35278 0,-0.19403 0.8731,-0.35278 1.9402,-0.35278 1.9166,0 2.604,0.44971 1.2348,0.80778 -0.6562,0.1716 -0.7056,0.48119 -0.7056,4.42709 0,3.93276 0.052,4.25894 0.7056,4.46652 1.3392,0.42507 0.6996,0.88195 -1.2348,0.88195 -1.0671,0 -1.9402,-0.14177 -1.9402,-0.31504 z m 10.4069,-0.23598 c -1.6339,-0.82589 -2.4186,-2.16491 -2.5619,-4.37184 -0.1591,-2.45059 0.6658,-4.10561 2.5986,-5.2137 1.7186,-0.98524 3.2876,-1.00771 5.1192,-0.0733 1.5649,0.79835 2.7661,2.85757 2.7661,4.7418 0,1.65594 -1.2234,3.9624 -2.5216,4.75389 -1.4005,0.85387 -3.8854,0.92894 -5.4004,0.16315 z m 5.3865,-1.83724 c 1.2038,-1.83724 0.3997,-6.21126 -1.31,-7.12629 -0.9785,-0.52368 -2.5657,-0.44666 -3.4418,0.16703 -1.5901,1.11375 -1.9365,4.76438 -0.6398,6.74335 1.3186,2.01255 4.1404,2.12555 5.3916,0.21591 z m 6.4316,2.07322 c 0,-0.17327 0.2381,-0.40641 0.5291,-0.51809 0.4315,-0.16555 0.5292,-1.0197 0.5292,-4.62386 0,-3.69441 -0.087,-4.42079 -0.5292,-4.42079 -0.291,0 -0.5291,-0.15875 -0.5291,-0.35278 0,-0.19403 0.5953,-0.35206 1.3229,-0.35118 1.2643,0.002 1.4395,0.15778 3.9556,3.52777 1.448,1.93941 2.6784,3.52619 2.7341,3.52619 0.056,0 0.1013,-1.42875 0.1013,-3.175 0,-2.58704 -0.098,-3.175 -0.5292,-3.175 -0.2911,0 -0.5292,-0.15875 -0.5292,-0.35278 0,-0.19403 0.7938,-0.35278 1.7639,-0.35278 1.7706,0 2.3771,0.46292 1.0583,0.80778 -0.6619,0.17309 -0.7055,0.48119 -0.7055,4.98003 0,2.9807 -0.1343,4.79553 -0.3549,4.79553 -0.1952,0 -1.7125,-1.82563 -3.3718,-4.05695 -1.6593,-2.23132 -3.0871,-4.05694 -3.1729,-4.05694 -0.086,0 -0.156,1.5768 -0.156,3.504 0,3.19418 0.062,3.52381 0.7056,3.72794 1.2931,0.41043 0.7273,0.88195 -1.0583,0.88195 -0.9702,0 -1.7639,-0.14177 -1.7639,-0.31504 z m 15.0812,-0.066 c -0.3672,-0.21388 -0.6173,-0.78131 -0.6173,-1.40038 0,-1.25613 0.5994,-1.3659 1.0459,-0.19154 0.4331,1.13919 2.1953,1.5363 3.3781,0.76128 1.5608,-1.02267 1.0044,-2.25572 -1.6018,-3.54955 -2.6989,-1.33982 -3.486,-2.95359 -2.2803,-4.67494 0.6976,-0.99598 2.9169,-1.65758 4.5393,-1.35321 1.1657,0.21868 1.2688,0.33699 1.2688,1.45675 0,1.42218 -0.576,1.60548 -1.0584,0.33679 -0.2648,-0.69666 -0.5817,-0.88194 -1.5082,-0.88194 -1.3547,0 -2.0196,0.52785 -2.0196,1.60338 0,0.90206 0.7136,1.58014 2.7289,2.59339 2.6892,1.35204 3.2079,3.4338 1.2409,4.98103 -0.9823,0.77263 -4.013,0.96156 -5.1163,0.31894 z M 18.367362,334.25302 C 8.4395821,322.74897 6.5580721,320.72724 6.4513921,321.449 c -0.21069,1.42542 0.13145,21.08778 0.37111,21.32744 0.12257,0.12257 1.28666,0.46552 2.58686,0.76209 l 2.3639999,0.53923 -0.21251,1.285 c -0.11688,0.70674 -0.21426,1.48343 -0.2164,1.72596 -0.003,0.33823 -1.6795099,0.44098 -7.1957699,0.44098 h -7.19189 l -0.24291,-1.61984 c -0.13359,-0.8909 -0.19131,-1.65978 -0.12825,-1.70862 0.0631,-0.0488 1.06716,-0.39147 2.23133,-0.76142 l 2.11666996,-0.67262 0.28309004,-5.46806 c 0.36415,-7.03378 0.0635,-24.24071 -0.43407004,-24.84021 -0.20342,-0.24511 -1.26311,-0.64555 -2.35487996,-0.88988 l -1.98502,-0.44423 0.21308,-1.28853 c 0.1172,-0.7087 0.21483,-1.49111 0.21697,-1.7387 0.003,-0.34947 1.20661,-0.42838 5.38088,-0.35278 l 5.37699,0.0974 10.2333899,11.36768 c 5.6284,6.25223 10.5304,11.64973 10.8933,11.99445 0.6439,0.61172 0.655,0.3949 0.4616,-9.04107 -0.1419,-6.91803 -0.3179,-9.74176 -0.6189,-9.92779 -0.2313,-0.14298 -1.3519,-0.45759 -2.4901,-0.69913 -1.8863,-0.4003 -2.069,-0.52074 -2.0646,-1.3611 0,-0.50706 0.1014,-1.28235 0.2194,-1.72285 l 0.2146,-0.80092 7.1008,0.0954 7.1007,0.0954 0.1063,1.64633 0.1063,1.64634 -1.9745,0.44188 c -1.086,0.24303 -2.0863,0.61343 -2.223,0.8231 -0.1366,0.20968 -0.3278,8.23936 -0.4248,17.84373 l -0.1764,17.4625 -1.9691,0.10403 -1.969,0.10403 z m 35.4005,12.91298 c -4.685,-1.52687 -8.6147,-5.84021 -9.615,-10.55365 -1.5941,-7.51182 1.7512,-14.63861 8.4181,-17.93354 2.5565,-1.26352 2.7904,-1.31157 6.3763,-1.31032 4.5467,0.002 6.5525,0.75489 9.0125,3.38488 2.2599,2.416 3.0656,4.42821 3.2703,8.1673 l 0.169,3.0868 h -9.3917 -9.3918 v 0.8191 c 0,2.75231 2.4196,6.34263 5.1727,7.67535 3.2842,1.58984 8.4724,0.82813 10.6756,-1.56736 1.0615,-1.15414 1.4497,-1.16179 2.495,-0.0492 0.7621,0.81129 0.7879,0.9572 0.3275,1.85209 -0.2749,0.53428 -1.453,1.9378 -2.6179,3.11895 -2.7411,2.77908 -5.0624,3.73019 -9.5265,3.90324 -2.4832,0.0962 -3.6542,-0.0331 -5.3741,-0.59364 z m 9.9666,-20.18561 c -0.4061,-2.62328 -0.8996,-3.72913 -2.1569,-4.83306 -1.0232,-0.89843 -1.5221,-1.07597 -3.0236,-1.07597 -3.2075,0 -5.3068,2.10035 -5.8165,5.81971 l -0.2178,1.58863 h 5.7234 5.7234 z m 63.493598,20.32049 c -7.3701,-1.56409 -13.342,-7.02884 -14.9779,-13.70591 -0.6,-2.44923 -0.5128,-8.3722 0.1608,-10.91403 2.0371,-7.68712 7.6606,-12.8861 16.0518,-14.84006 5.0338,-1.17215 12.9495,-0.70133 17.056,1.01446 l 1.1847,0.49498 0.2533,4.65959 c 0.1393,2.56277 0.2023,4.71044 0.1401,4.77261 -0.062,0.0622 -1.0556,0.15664 -2.2075,0.20995 l -2.0942,0.0969 -1.0337,-3.10114 c -0.949,-2.84711 -1.1387,-3.14759 -2.3155,-3.6681 -0.8819,-0.39009 -2.3273,-0.56788 -4.6332,-0.56991 -2.7501,-0.002 -3.6822,0.14444 -5.1953,0.81849 -4.4713,1.99182 -7.1291,7.19669 -7.1458,13.99409 -0.023,9.28642 4.9367,16.14215 12.0482,16.6547 1.294,0.0933 2.7625,0.0668 3.2631,-0.0589 l 0.9104,-0.22848 v -4.76451 c 0,-5.40277 0.166,-5.11996 -3.3124,-5.64158 l -1.6604,-0.249 0.1051,-1.80948 0.1052,-1.80949 h 8.4667 8.4666 v 1.71669 c 0,1.71175 0,1.71838 -1.5875,2.30833 l -1.5875,0.59166 0.1001,5.55842 0.1001,5.55842 -2.5695,1.1859 c -1.4133,0.65224 -3.7932,1.43814 -5.2887,1.74644 -3.3749,0.6957 -9.4729,0.68567 -12.8031,-0.0211 z m 39.5527,0.20866 c -3.8927,-0.96916 -7.9682,-4.32698 -9.6133,-7.92037 -4.7052,-10.27733 2.7625,-22.39836 13.7993,-22.39836 7.2823,0 11.9629,4.5422 12.4448,12.07679 l 0.1745,2.72818 -9.4818,0.094 c -10.7148,0.10627 -9.7416,-0.22452 -8.8939,3.0231 0.5438,2.08322 3.0265,4.77976 5.1546,5.5985 3.331,1.28152 7.9348,0.44825 10.3612,-1.87531 0.7502,-0.71832 1.0688,-0.82268 1.6166,-0.52952 1.5898,0.85086 1.6591,1.3382 0.4569,3.21177 -1.4975,2.33356 -3.1904,3.76948 -5.9896,5.08018 -1.9635,0.91939 -2.7858,1.09432 -5.4848,1.16676 -1.7462,0.0469 -3.7913,-0.0682 -4.5445,-0.25576 z m 8.9465,-20.52915 c -0.018,-3.45995 -2.2198,-5.90519 -5.3199,-5.90771 -2.91,-0.002 -5.2047,2.43519 -5.7274,6.0841 l -0.1895,1.32292 h 5.6223 5.6222 z M 74.787662,346.29497 c -0.029,-0.67909 -0.069,-1.41191 -0.088,-1.62849 -0.019,-0.21657 0.6647,-0.65313 1.5203,-0.97013 1.302,-0.48243 2.2702,-1.42243 5.9399,-5.76694 l 4.3843,-5.19057 -4.3067,-5.46573 c -3.7212,-4.72273 -4.5047,-5.53174 -5.7635,-5.95133 -1.414,-0.47134 -1.4568,-0.53135 -1.4568,-2.0437 v -1.55811 l 8.0257,-0.0948 8.0257,-0.0948 v 0.80037 c 0,0.44021 0.097,1.14492 0.2102,1.56604 0.1714,0.63907 -0.04,0.87273 -1.2797,1.41326 l -1.4851,0.6476 2.245,2.89445 c 1.2348,1.59195 2.3561,2.86099 2.4919,2.82008 0.1357,-0.0409 1.1995,-1.34439 2.3638,-2.89661 l 2.1171,-2.82222 -1.3938,-0.6029 c -1.4427,-0.6241 -1.6606,-1.18721 -1.169,-3.02181 0.2134,-0.79682 0.2539,-0.8018 5.727798,-0.70556 l 5.5128,0.0969 v 1.55811 c 0,1.51818 -0.038,1.57083 -1.4914,2.05524 -1.2245,0.40814 -2.1717,1.28549 -5.291698,4.90104 -2.0901,2.42215 -3.842,4.5197 -3.893,4.66124 -0.051,0.14153 2.044,2.94991 4.655498,6.24085 4.0743,5.13408 4.9638,6.06535 6.2664,6.5599 1.4691,0.55778 1.5181,0.62604 1.5181,2.11666 v 1.5403 l -8.202098,0.0947 -8.2021,0.0947 v -1.71455 c 0,-1.69466 0.016,-1.71946 1.4111,-2.13733 0.7761,-0.23253 1.4111,-0.49605 1.4111,-0.58559 0,-0.4116 -5.4204,-7.04081 -5.757,-7.04081 -0.3619,0 -5.1373,6.428 -5.1656,6.9532 -0.01,0.13773 0.6215,0.44067 1.3976,0.6732 1.3938,0.41759 1.4112,0.44375 1.4112,2.13083 v 1.70805 h -5.8209 -5.8208 z m 112.038198,0.009 c -0.3385,-1.80459 -0.084,-2.12645 2.0567,-2.60563 l 1.9301,-0.43193 0.2223,-1.62171 c 0.2977,-2.17188 0.2462,-14.03523 -0.069,-15.81044 -0.2438,-1.37504 -0.3037,-1.42495 -2.3609,-1.96812 l -2.1107,-0.5573 -0.1085,-1.47146 c -0.06,-0.80931 -0.06,-1.47249 0,-1.47375 0.06,-10e-4 2.7416,-0.69396 5.9599,-1.53935 5.4194,-1.4236 5.9242,-1.49893 6.8375,-1.02041 0.9579,0.50194 0.9797,0.57749 0.7632,2.6488 l -0.2229,2.13213 1.94,-1.83471 c 2.2537,-2.13142 4.4024,-3.18378 7.0612,-3.45819 3.6197,-0.37359 6.982,1.06308 8.9966,3.84411 1.901,2.62427 2.1889,4.22735 2.4247,13.50198 l 0.2149,8.45124 1.9403,0.55897 1.9403,0.55896 0.1075,1.66133 0.1075,1.66132 h -8.4409 -8.4409 l -0.2348,-1.46835 c -0.1291,-0.80759 -0.1097,-1.57794 0.043,-1.71188 0.1528,-0.13394 1.0178,-0.44236 1.9221,-0.68536 1.1722,-0.31497 1.7026,-0.6591 1.8473,-1.19854 0.1117,-0.41619 0.2052,-3.77901 0.2079,-7.47293 0,-6.26948 -0.048,-6.82073 -0.789,-8.28743 -1.1806,-2.33696 -2.7672,-3.26155 -5.2935,-3.08479 -1.5348,0.1074 -2.3957,0.39882 -3.5277,1.19423 l -1.4975,1.05217 -0.1,7.92102 c -0.055,4.35656 -0.018,8.25446 0.082,8.66199 0.1331,0.54418 0.6749,0.87294 2.0399,1.23786 l 1.8586,0.49688 v 1.58437 1.58437 l -8.5377,0.0944 -8.5377,0.0944 z M 98.637862,252.8318 c -6.0065,-2.55994 -18.1806,-7.73507 -27.0535,-11.5003 -8.8729,-3.76522 -16.0166,-6.9461 -15.875,-7.06862 0.2332,-0.20164 20.0875,-8.67626 44.002,-18.78182 5.044798,-2.13175 9.287498,-3.97548 9.428398,-4.09717 0.1409,-0.1217 -11.089998,-5.04174 -24.957498,-10.93342 -13.8675,-5.89169 -25.9684,-11.07408 -26.8909,-11.51642 l -1.6772,-0.80426 53.974998,-0.0122 c 52.1707,-0.0118 53.9337,0.009 52.7403,0.62201 -0.6791,0.34884 -12.7813,5.53542 -26.8938,11.52574 -14.1125,5.99032 -25.5425,10.99305 -25.4,11.11717 0.1425,0.12412 2.1641,1.0229 4.4924,1.9973 12.3623,5.17358 48.7194,20.68396 48.9405,20.87864 0.2013,0.17728 -24.766,10.94801 -51.0724,22.03226 l -2.8374,1.19556 z m -124.75657,-53.07299 c -14.87878,-6.32955 -26.94378,-11.61202 -26.8111,-11.73882 0.13267,-0.12681 9.21059,-4.03966 20.17316,-8.69525 31.7545501,-13.48552 33.55498006,-14.25837 33.44338006,-14.35589 -0.12455,-0.10884 -23.06447006,-9.87321 -40.67532006,-17.31344 -6.79098,-2.86905 -12.49804,-5.34666 -12.68236,-5.50581 -0.18433,-0.15914 23.93244,-0.28935 53.59282006,-0.28935 29.66038994,0 53.83018994,0.0978 53.71068994,0.21722 -0.1194,0.11948 -4.7893,2.15723 -10.3775,4.52835 -35.6193099,15.11363 -43.1111999,18.35601 -42.8775399,18.55676 0.14391,0.12366 7.88166,3.45259 17.1950399,7.39765 9.3133,3.94505 20.8227,8.82582 25.5763,10.84616 4.7537,2.02034 9.1965,3.90462 9.8728,4.18729 l 1.2297,0.51395 -7.0506,3.01317 c -3.8777,1.65725 -16.0198,6.82668 -26.9824,11.48763 -10.96258,4.66095 -20.0113299,8.51591 -20.1083399,8.56656 -0.097,0.0507 -12.3499401,-5.08662 -27.2287301,-11.41618 z m 232.368968,6.39318 c -32.1567,-13.66569 -42.1894,-18.01557 -41.9207,-18.17548 0.1611,-0.0959 5.0554,-2.19317 10.8763,-4.66069 5.8208,-2.46753 16.9333,-7.18884 24.6944,-10.49182 7.7611,-3.30298 14.9049,-6.32959 15.875,-6.7258 0.9702,-0.39621 1.8823,-0.82008 2.0271,-0.94193 0.1447,-0.12185 -4.8559,-2.39336 -11.1125,-5.0478 -32.0005,-13.57658 -41.9435,-17.8304 -42.1426,-18.02953 -0.1203,-0.12028 24.0436,-0.21869 53.6975,-0.21869 29.6539,0 53.815,0.10114 53.6914,0.22476 -0.1916,0.19162 -12.1746,5.31386 -46.7216,19.97154 -3.7337,1.58414 -6.6706,2.97948 -6.5264,3.10076 0.1442,0.12128 1.0559,0.54333 2.026,0.93789 0.9702,0.39456 12.4795,5.27726 25.5764,10.85044 13.0969,5.57319 24.3681,10.3674 25.0472,10.65382 l 1.2347,0.52075 -5.6444,2.40312 c -3.1044,1.32172 -14.2169,6.05375 -24.6944,10.51563 -10.4775,4.46188 -20.1613,8.58451 -21.5195,9.16142 l -2.4694,1.04891 z M 66.212662,180.46302 c -0.3274,-0.49959 -0.7131,-1.65457 -0.8573,-2.56661 -0.4613,-2.91836 0.4443,-4.68564 2.756,-5.37826 l 1.2698,-0.38045 -1.3138,-1.38117 c -1.4831,-1.55903 -2.2253,-3.68494 -1.7359,-4.97216 0.6024,-1.58452 3.0333,-3.51508 6.6165,-5.25483 1.9664,-0.95477 3.7238,-1.73595 3.9052,-1.73595 0.7571,0 3.2791,-2.55668 3.2791,-3.32421 0,-0.87291 -0.9947,-1.9663 -1.7917,-1.96943 -1.2336,-0.005 -3.1719,-0.79603 -3.5134,-1.43417 -0.3092,-0.57771 -0.1966,-0.87757 0.6457,-1.71984 0.561,-0.56108 1.7199,-1.20468 2.5752,-1.43024 2.1729,-0.57305 3.0438,-1.21661 3.3145,-2.44946 0.3682,-1.6763 -0.057,-2.43118 -1.6044,-2.84783 -1.5556,-0.41889 -1.7106,-0.78487 -0.699,-1.65097 0.678,-0.58056 0.6715,-0.60316 -0.3528,-1.22608 -0.574,-0.34905 -1.0436,-0.77927 -1.0436,-0.95605 0,-0.6031 2.3278,-2.36663 5.4005,-4.09134 7.4334,-4.1724 12.3184,-10.94888 14.705,-20.39864 1.3604,-5.38658 1.7668,-9.69991 1.7668,-18.752233 0,-7.2154 -0.03,-7.539677 -0.8035,-8.687409 -0.5002,-0.742222 -1.3669,-1.400379 -2.2963,-1.743679 -2.0879,-0.771283 -2.7239,-1.466114 -2.2139,-2.418936 0.2198,-0.410691 0.5528,-0.746712 0.74,-0.746712 0.7811,0 0.2575,-0.627239 -0.7694,-0.921763 -1.6622,-0.476702 -2.0464,-1.323177 -1.0716,-2.360822 1.1294,-1.20223 0.4761,-1.601157 -3.3305,-2.033695 -1.7153,-0.194905 -3.4859,-0.594997 -3.9348,-0.889093 -1.7742,-1.162546 -1.8843,-3.303418 -0.2478,-4.820855 0.49,-0.454418 2.7126,-1.419556 5.0107,-2.175923 5.9057,-1.943726 7.6254,-3.910228 4.851,-5.547192 -2.5237,-1.489021 -2.2285,-2.973188 0.8911,-4.479215 1.0671,-0.515196 1.9402,-1.168521 1.9402,-1.451834 0,-0.283313 -0.5553,-0.889337 -1.234,-1.34672 -2.0953,-1.412023 -2.2304,-2.648747 -0.3309,-3.028648 0.5697,-0.113936 1.0358,-0.37855 1.0358,-0.588031 0,-0.209481 -2.3813,-6.417003 -5.2917,-13.794493 -5.8976,-14.949518 -6.1152,-15.840835 -4.2819,-17.538927 1.5658,-1.450368 10.1302,-4.27503 12.989698,-4.284205 0.5773,-0.0019 0.7983,-0.245514 0.882,-0.972611 0.08,-0.694621 0.337,-1.002154 0.9053,-1.082869 0.9227,-0.131036 1.0104,-0.503045 0.2646,-1.121992 -0.8267,-0.686108 -0.6334,-1.861606 0.7283,-4.428279 1.4213,-2.6792029 1.2663,-3.2615519 -0.6545,-2.4589839 -2.3763,0.992904 -4.765498,0.512845 -5.502898,-1.105737 -0.8038,-1.764027 -0.2026,-5.55154697 1.0411,-6.55908297 0.8648,-0.700636 3.496698,-0.836026 4.615198,-0.237418 0.3904,0.208968 0.9475,0.288774 1.2379,0.177346 0.4442,-0.170491 0.4118,-0.3502 -0.2047,-1.13401603 -1.0555,-1.341741 -1.8369,-4.191741 -1.4374,-5.242395 0.37,-0.973309 2.0229,-1.941989 3.3137,-1.941989 1.1633,0 1.4333,-0.525236 0.9143,-1.7783341 -0.2347,-0.566606 -0.3332,-1.402933 -0.2188,-1.858505 0.3896,-1.552352 3.5062,-2.211582 5.1181,-1.082581 0.8244,0.577413 0.8508,0.873633 0.342,3.8296921 -0.1,0.581375 0.1331,0.732852 1.3974,0.908067 0.9583,0.132811 1.8523,0.545265 2.4265,1.119422 0.8059,0.805921 0.8819,1.090773 0.6692,2.509211 -0.132,0.880046 -0.6286,2.172796 -1.1037,2.872778 -1.1332,1.66995603 -1.1081,2.09113403 0.1065,1.78324203 1.7815,-0.451602 3.6144,-0.618765 4.4594,-0.406697 1.1923,0.299259 1.9788,2.20103597 1.9788,4.78486097 0,1.831012 -0.1344,2.302034 -0.8659,3.03349 -1.0183,1.018257 -2.7293,1.141994 -4.6566,0.336743 -0.6965,-0.291042 -1.4058,-0.529167 -1.5761,-0.529167 -0.5752,0 -0.3149,1.061892 0.7486,3.0549369 1.0498,1.967191 1.3836,4.110715 0.7056,4.529785 -0.5966,0.368695 -0.3913,0.881944 0.3527,0.881944 0.5425,0 0.7056,0.235186 0.7056,1.017686 0,0.970599 0.091,1.029049 1.966,1.263316 4.3257,0.540462 11.0098,2.932047 12.3215,4.408621 1.3977,1.573414 0.9884,3.093994 -4.7395,17.608618 -2.9385,7.446184 -5.2967,13.576013 -5.2405,13.621841 0.056,0.04583 0.5785,0.236555 1.1606,0.423837 1.6546,0.532384 1.5835,1.643709 -0.1764,2.754692 -2.0543,1.296807 -1.854,2.201944 0.7028,3.175552 2.931,1.116132 3.3916,3.208067 0.9324,4.235567 -0.9963,0.416293 -1.6352,1.110861 -1.6352,1.777681 0,0.07439 0.4894,0.69273 1.0877,1.374082 0.8998,1.024882 1.768,1.457746 5.027,2.506496 4.669,1.502447 5.4227,1.940791 6.0922,3.543243 0.4446,1.064127 0.4406,1.339124 -0.033,2.255158 -0.73,1.411666 -1.2583,1.634998 -4.9252,2.082106 -3.6812,0.448842 -4.5432,0.981925 -3.4139,2.11126 0.9378,0.937803 0.6501,1.673078 -0.8698,2.222668 -1.3354,0.482907 -1.4471,0.707503 -0.6719,1.350909 1.1165,0.926557 0.6187,1.753245 -1.6757,2.782846 -1.3543,0.607749 -2.3884,1.332789 -2.6808,1.879463 -0.3805,0.711663 -0.4422,3.03774 -0.3078,11.607603 0.1437,9.159789 0.2723,11.153439 0.8845,13.716199 1.7205,7.20157 3.9492,11.86978 7.9577,16.6679 1.7351,2.07697 4.1979,3.99065 7.6402,5.9367 4.8373,2.73477 5.9577,4.11019 4.0545,4.97736 -0.8256,0.37617 -0.8462,0.44514 -0.31,1.03763 0.7393,0.81694 0.3907,1.7193 -0.6643,1.7193 -1.169,0 -1.6691,0.64767 -1.6691,2.16162 0,1.57665 0.935,2.45351 3.3318,3.12457 1.731,0.48464 3.371,1.76237 3.371,2.62634 0,0.76657 -1.4935,1.64335 -3.186,1.87036 -2.4663,0.3308 -3.0477,2.35341 -1.1641,4.04935 0.3685,0.33169 1.617,1.01661 2.7746,1.52203 5.8048,2.53455 8.8994,4.61092 9.6797,6.49474 0.6669,1.60984 0.1746,3.40146 -1.3976,5.08692 l -1.3607,1.45883 1.4722,0.70748 c 2.7002,1.29765 3.4204,4.58823 1.6436,7.50995 l -0.6902,1.13503 h -43.1799 -43.179898 z m 40.377898,-5.09341 c 22.7702,-0.45259 30.3389,-0.72965 30.3389,-1.11059 0,-0.16468 -15.6744,-0.25897 -34.832,-0.20951 -32.887898,0.0849 -34.838598,0.12446 -34.951198,0.70895 -0.071,0.36968 0.1663,0.72494 0.5896,0.88195 0.8461,0.31381 14.0843,0.22155 38.854698,-0.2708 z M 80.709862,168.676 c 6.8868,-0.27335 40.430798,-1.53542 59.218198,-2.22805 1.5522,-0.0572 -13.5557,-0.13599 -33.5732,-0.17504 -20.017498,-0.039 -36.646598,0.0254 -36.953498,0.14314 -0.75,0.28782 -0.7103,1.77878 0.059,2.22706 0.7753,0.45154 0.7068,0.45134 11.2491,0.0329 z m 15.2974,-17.32014 c 25.015398,-0.6424 25.655898,-0.92297 2.2337,-0.97856 -11.6743,-0.0277 -21.4771,0.046 -21.784,0.16375 -0.666,0.25555 -0.7374,1.06286 -0.1171,1.3234 0.2425,0.10187 1.2347,0.11982 2.2049,0.0399 0.9701,-0.0799 8.8282,-0.32674 17.4625,-0.54847 z m -5.6445,-8.63833 c 12.597698,-0.36128 12.916398,-0.76873 0.6382,-0.81579 -6.8831,-0.0264 -10.9065,0.087 -11.0451,0.31129 -0.3887,0.62896 0.2201,1.10411 1.1801,0.92095 0.5151,-0.0983 4.6672,-0.28568 9.2268,-0.41645 z m 10.383798,-3.12715 10.6065,-0.40937 -15.813298,-0.29193 c -11.0164,-0.20337 -15.9265,-0.17875 -16.1864,0.0812 -0.2052,0.20522 -0.2719,0.637 -0.1481,0.95953 0.2023,0.52711 0.7665,0.56029 5.5799,0.32818 2.9452,-0.14202 10.1278,-0.44244 15.961398,-0.66759 z m -0.2367,-6.37319 c 3.1402,-9.53473 3.8903,-15.54406 3.2584,-26.10642 -0.3614,-6.04108 -1.1845,-13.824945 -1.4948,-14.13523 -0.088,-0.08846 -0.2605,2.817855 -0.3824,6.458468 -0.588,17.566982 -3.900798,27.593322 -11.835698,35.821302 l -1.6253,1.68534 5.4589,-0.0978 5.459,-0.0978 z m 2.6603,-49.211076 c 2.4845,-0.194809 4.9451,-0.381894 5.4681,-0.415746 0.523,-0.03385 -2.0653,-0.166549 -5.7519,-0.294882 -3.686498,-0.128334 -6.842898,-0.111307 -7.014198,0.03784 -0.1712,0.149143 -0.215,0.522483 -0.097,0.829644 0.1618,0.421674 0.5406,0.514245 1.5462,0.37791 0.7325,-0.09931 3.364498,-0.339954 5.848898,-0.534762 z m 1.3037,-3.873331 c 1.7357,-0.200496 0.7331,-0.276618 -4.1243,-0.313153 -5.903898,-0.04441 -7.225898,0.120739 -6.537598,0.816722 0.2624,0.265342 6.594698,-0.03374 10.661898,-0.503569 z m 11.2007,-5.881647 c 7.2276,-0.129957 13.141,-0.36982 13.141,-0.53303 0,-0.163209 -2.4346,-0.296745 -5.4101,-0.296745 -2.9756,0 -12.58,-0.105255 -21.3431,-0.233901 -15.766098,-0.231453 -15.932898,-0.22653 -15.932898,0.47037 0,0.38735 0.1191,0.83036 0.2646,0.984467 0.1455,0.154108 3.8364,0.182304 8.2021,0.06266 4.3656,-0.119645 13.850898,-0.323864 21.078398,-0.453821 z m -7.1542,-12.178169 c 5.815,-0.233486 10.1807,-0.529221 9.7014,-0.657191 -0.4793,-0.12797 -5.8324,-0.347633 -11.8958,-0.488139 L 95.301662,60.67217 v 0.90654 c 0,1.09989 -0.9656,1.063783 13.218698,0.494257 z m -1.0478,-6.801187 7.4083,-0.444779 -8.2903,-0.09205 c -10.109398,-0.112255 -10.196398,-0.106244 -9.715898,0.671278 0.2779,0.449687 1.0267,0.440189 10.597898,-0.134444 z m -9.130998,-9.589669 c -3.0551,-12.166216 -4.2009,-19.571388 -3.1854,-20.586915 0.3785,-0.378494 15.242298,-1.040136 23.693398,-1.054679 2.8757,-0.0049 4.6743,-0.143791 4.6743,-0.360822 0,-0.218189 -1.8624,-0.352778 -4.8817,-0.352778 -7.5599,0 -21.929998,-0.441634 -21.923998,-0.673787 0,-0.114486 0.8364,-0.824329 1.8521,-1.577428 l 1.846698,-1.369271 -1.411098,0.239864 c -4.4748,0.760644 -8.2903,2.968443 -8.2903,4.797144 0,0.934356 2.6962,10.214671 4.2766,14.720107 1.4299,4.076453 3.8956,10.028239 4.0786,9.845213 0.08,-0.07979 -0.2484,-1.711778 -0.7292,-3.626648 z m 6.347198,-32.999774 c 0.034,-1.616414 -0.015,-1.747192 -0.441,-1.165121 -0.7284,0.996232 -0.5968,2.996468 0.1967,2.988083 0.1132,-0.0012 0.2231,-0.821529 0.2443,-1.822962 z m -4.3265,-11.79921487 0.976,-0.839538 h -0.8816 c -1.144998,0 -1.979998,1.21111297 -1.979998,2.87186497 0,2.302036 0.5057,2.79642 0.7178,0.7017 0.1514,-1.496109 0.397,-2.071031 1.167798,-2.73402697 z m 4.664,-6.40673003 c 0.095,-0.442581 0.6838,-1.116676 1.3092,-1.497987 0.8012,-0.488533 0.9479,-0.693684 0.4965,-0.694613 -0.7534,-0.0016 -2.072,0.645637 -2.4409,1.198021 -0.3399,0.509109 -0.3437,2.489262 -0.01,2.830457 0.1456,0.146758 0.3105,-0.02522 0.3666,-0.382176 0.056,-0.356955 0.1793,-1.011121 0.274,-1.453702 z m 81.3177,140.4571179 c -0.6777,-0.86149 -0.9173,-2.10228 -0.7402,-3.83298 0.097,-0.9486 1.2864,-2.18301 2.364,-2.45348 l 0.8771,-0.22011 -1.2633,-1.39825 c -2.5204,-2.78975 -1.2899,-5.27749 3.8378,-7.75945 1.5884,-0.76883 3.0387,-1.39788 3.2228,-1.39788 0.1842,0 0.9267,-0.48781 1.65,-1.08402 2.0083,-1.65546 1.6474,-2.968 -0.9314,-3.38648 -0.6881,-0.11166 -1.5206,-0.50085 -1.85,-0.86487 -0.5638,-0.623 -0.5626,-0.70203 0.021,-1.3464 0.3407,-0.3765 1.3443,-0.93152 2.2303,-1.23339 1.9551,-0.66617 2.9058,-1.47245 2.8986,-2.45826 -0.01,-1.06139 -0.3973,-1.53155 -1.4975,-1.80769 -1.4295,-0.35878 -1.1739,-1.13715 0.5327,-1.62253 0.8246,-0.23453 1.6241,-0.53232 1.7765,-0.66176 0.1525,-0.12944 -0.7806,-1.41236 -2.0735,-2.85094 -5.3665,-5.971245 -7.8163,-9.152633 -8.2553,-10.72061 -1.3039,-4.656833 1.8448,-9.348909 11.5738,-17.247057 10.9215,-8.866228 18.7703,-17.793296 19.8377,-22.563222 0.7468,-3.337089 -0.6173,-6.144739 -3.7137,-7.643709 l -1.5638,-0.75702 1.6287,-1.999644 c 2.6512,-3.254948 3.9037,-7.04383 3.4047,-10.299618 l -0.2433,-1.5875 -0.4321,2.530757 c -0.5553,3.252643 -1.8202,5.990355 -3.7197,8.051092 -2.5283,2.742802 -3.9279,3.357305 -8.4008,3.688305 -5.6369,0.417139 -6.634,1.105169 -11.2727,7.778456 -1.0115,1.455209 -2.2691,2.837111 -2.7945,3.070894 -0.9918,0.441218 -9.0753,0.635527 -10.0988,0.242752 -0.6717,-0.257761 -0.7741,-2.944478 -0.1574,-4.130588 0.2204,-0.423807 1.2522,-1.671585 2.2931,-2.772841 2.0543,-2.173582 2.1642,-2.438006 1.3513,-3.250917 -0.6961,-0.696095 -1.3091,-0.461122 -5.3521,2.051687 -3.3897,2.106748 -4.2524,2.329633 -5.1554,1.331916 -1.2413,-1.371704 -1.6514,-3.52701 -1.6514,-8.679594 0,-5.827766 -0.067,-5.670691 3.6289,-8.46236 1.3996,-1.057026 3.0437,-2.450596 3.6537,-3.096823 1.3095,-1.387518 6.4452,-8.666244 8.4206,-11.934681 4.0783,-6.7474929 7.2625,-9.6095569 11.5956,-10.4224509 0.7062,-0.132476 1.3801,-0.396427 1.4976,-0.586557 0.1175,-0.190131 -0.4256,-1.005572 -1.2069,-1.812092 -1.4627,-1.50987897 -8.8923,-12.3007761 -8.8923,-12.9153361 0,-1.160341 4.3374,-1.32686 8.8005,-0.337868 2.2218,0.492318 6.8654,2.8147661 9.1804,4.5914661 1.896,1.455168 2.003,1.488491 6.1736,1.923487 6.4147,0.669061 9.8157,1.362866 13.159,2.684424 3.5883,1.418442 4.4512,3.992273 4.4744,13.3471499 0.01,3.589513 -0.1132,7.397306 -0.2715,8.46176 l -0.2878,1.935372 0.8936,-0.839514 c 1.6891,-1.586768 3.3861,-9.038893 3.3861,-14.8689639 v -3.522438 l 1.4993,0.755263 c 2.2518,1.134308 4.4318,3.038003 5.1973,4.538628 1.5587,3.0552499 1.8429,10.0667359 0.6978,17.2158669 -0.712,4.445552 -1.463,8.065638 -1.9565,9.43097 -0.2023,0.559672 -0.023,0.489587 0.8664,-0.338957 1.4423,-1.343272 4.9225,-8.302741 6.1885,-12.375356 1.5457,-4.97227 1.3263,-4.736902 2.5828,-2.770348 2.7984,4.379779 3.094,5.274145 3.0739,9.30002 -0.046,9.182896 -5.0746,20.409372 -12.5314,27.976746 -2.9679,3.011813 -3.0228,3.372464 -0.3051,2.002105 4.4899,-2.264011 15.5986,-12.341427 16.41,-14.886571 0.4705,-1.476001 0.7611,-0.319856 0.9753,3.880555 0.1262,2.473854 0.2301,6.094024 0.2309,8.044822 10e-4,3.367149 -0.054,3.635328 -1.1019,5.291666 -2.5553,4.04112 -8.4083,10.494829 -12.4756,13.756036 -1.7479,1.401515 -4.9093,3.757013 -7.0253,5.23444 l -3.8473,2.68623 h 1.4218 c 4.6509,0 15.5619,-2.784185 19.4003,-4.950437 2.1755,-1.227756 2.192,-1.231263 2.0192,-0.429424 -0.073,0.339549 -0.4759,2.442986 -0.8951,4.674305 -1.0386,5.529128 -1.8077,7.472348 -3.5463,8.960555 -1.6759,1.43451 -4.8924,3.168751 -9.7935,5.280403 -1.9504,0.840349 -3.443,1.631163 -3.3168,1.757364 0.3494,0.349409 9.268,0.257245 10.8617,-0.112244 0.7707,-0.178677 1.4488,-0.27731 1.5069,-0.219184 0.058,0.05813 -0.2345,0.994715 -0.6504,2.081311 -1.1028,2.881991 -1.5978,3.208771 -4.9643,3.277151 -2.1859,0.0444 -3.0423,0.2132 -3.7455,0.73826 -1.4079,1.05114 -1.346,1.47727 0.2519,1.73277 1.7684,0.28278 1.8352,0.89384 0.203,1.85687 -2.1312,1.25741 -1.4709,3.06622 1.3596,3.72489 0.5538,0.12886 1.3873,0.48351 1.8521,0.78809 1.4579,0.95521 0.8831,2.58932 -0.9107,2.58932 -1.2866,0 -2.4774,0.93982 -2.4774,1.95528 0,0.9877 1.5142,2.10037 4.5861,3.37005 6.377,2.63572 8.0831,5.48685 5.1464,8.60064 l -1.1449,1.21397 0.9935,0.21823 c 2.2544,0.49513 3.1579,3.70104 1.7116,6.07308 l -0.699,1.14653 h -34.7282 -34.7282 z m 40.5438,-4.04796 c 8.8283,-0.21994 16.2032,-0.54031 16.3887,-0.71194 0.1956,-0.18104 -11.5033,-0.27414 -27.8647,-0.22174 -26.5372,0.085 -28.2089,0.12676 -28.3207,0.70769 -0.1113,0.57807 0.6405,0.61763 11.8132,0.62162 6.5627,0.002 19.1553,-0.17569 27.9835,-0.39563 z m -4.2333,-6.14807 c 13.4849,-0.481 25.153,-0.92491 25.9292,-0.98647 0.7761,-0.0616 -12.1888,-0.13967 -28.8108,-0.17357 -16.622,-0.0339 -30.4729,0.0347 -30.7798,0.1525 -0.6621,0.25405 -0.7488,1.7612 -0.1171,2.03457 0.2426,0.10495 2.4254,0.11358 4.8507,0.0192 2.4254,-0.0944 15.4429,-0.56521 28.9278,-1.0462 z m -1.4111,-13.2052 c 5.0545,-0.18449 2.3954,-0.24263 -10.0248,-0.2192 -14.0386,0.0265 -16.9315,0.11442 -17.0663,0.51875 -0.1663,0.49911 7.5454,0.41384 27.0911,-0.29955 z m -11.9945,-6.69616 c 4.9617,-0.23919 4.8585,-0.24845 -3.4395,-0.30845 -5.5093,-0.0398 -8.5549,0.0637 -8.5549,0.29091 0,0.39498 4.0421,0.40088 11.9944,0.0175 z m -10.9361,-8.301008 c 0,-0.09327 -0.7922,-1.348795 -1.7604,-2.790056 -2.138,-3.182659 -2.4739,-4.01862 -2.4696,-6.147355 0,-2.088903 1.0301,-3.89765 5.1082,-9.005913 1.6796,-2.103973 2.9679,-3.911348 2.8629,-4.016389 -0.2715,-0.271528 -5.8592,4.536473 -8.028,6.907871 -3.2006,3.49951 -3.9519,6.611479 -2.2678,9.393803 1.1183,1.847472 6.5547,6.540244 6.5547,5.658039 z m -19.7555,-51.63455 c 0,-0.164218 -0.2492,-0.798027 -0.5537,-1.408465 -0.9602,-1.924669 -1.3572,-5.42241 -0.9473,-8.344078 0.2946,-2.098882 0.5967,-2.918281 1.4939,-4.05108 1.5109,-1.907628 0.81,-1.810942 -0.9844,0.135808 -1.6972,1.84127 -1.974,2.972565 -1.7592,7.191947 0.124,2.437492 0.3521,3.451995 1.1066,4.922362 0.8422,1.64122 1.6441,2.398928 1.6441,1.553506 z m 3.7186,-7.971981 c 0.2792,-0.668252 0.4058,-1.501689 0.2812,-1.852083 -0.6344,-1.784248 -2.3827,-2.452609 -3.3393,-1.276585 -0.4278,0.525899 -0.4063,0.565992 0.1842,0.344272 1.0932,-0.410424 1.9775,0.692624 1.9775,2.466575 0,0.843053 0.088,1.532824 0.1944,1.532824 0.1069,0 0.4228,-0.546751 0.702,-1.215003 z m 6.9817,-15.347897 c 1.0028,-1.251469 3.5109,-4.63768 5.5735,-7.524913 3.2339,-4.5267759 4.076,-5.4680299 6.1162,-6.8366819 1.3012,-0.872943 2.2887,-1.664353 2.1944,-1.75869 -0.332,-0.331932 -2.9173,0.574342 -4.4978,1.576669 -2.0422,1.295099 -3.0544,2.608926 -6.8426,8.8815159 -1.6992,2.813403 -3.9924,6.226528 -5.0961,7.584722 -1.1037,1.358195 -2.1415,2.70757 -2.3061,2.998611 -0.5667,1.001855 3.0381,-2.649429 4.8585,-4.921233 z m 9.408,-3.172547 c 0,-0.182968 0.8704,-1.272831 1.9343,-2.421916 1.9551,-2.111786 2.3852,-2.32905 6.356,-3.211089 1.3128,-0.291627 1.2392,-0.315689 -1.0584,-0.345578 -2.123,-0.02762 -2.7239,0.113848 -4.2838,1.008528 -0.998,0.57236 -2.1365,1.563058 -2.5302,2.201551 -0.9131,1.481191 -1.3357,3.101173 -0.8089,3.101173 0.215,0 0.391,-0.149701 0.391,-0.332669 z m 5.9886,-1.301671 c 1.2177,-1.024677 1.3406,-2.329574 0.2391,-2.539622 -0.5085,-0.09698 -0.6028,0.02882 -0.4299,0.573589 0.1488,0.468694 -0.082,1.058497 -0.7029,1.796316 -1.1277,1.340289 -0.6135,1.437944 0.8937,0.169717 z m 0.8654,-15.0344089 c -0.4428,-1.41095197 -8.3856,-12.2590281 -8.9759,-12.2590281 -0.3343,0 0.4322,1.2460801 4.5569,7.4083331 1.9649,2.93545503 4.1424,5.644445 4.5371,5.644445 0.072,0 0.019,-0.357188 -0.1181,-0.79375 z M -37.669928,134.22795 c -0.69573,-0.88447 -0.92194,-2.05596 -0.77419,-4.00937 0.0819,-1.08315 1.89359,-2.82222 2.94002,-2.82222 0.72558,0 0.70766,-0.065 -0.31601,-1.14653 -3.59745,-3.80073 -1.95926,-6.49148 5.94786,-9.76946 5.07718,-2.1048 6.10325,-4.67236 2.08271,-5.21163 -1.76912,-0.23729 -2.70972,-1.16142 -2.1833,-2.14505 0.35266,-0.65895 2.7137,-1.83566 3.6832,-1.83566 0.82667,0 1.99966,-1.41524 1.99966,-2.41263 0,-1.12634 -0.56929,-1.82071 -1.49274,-1.82071 -0.89128,0 -1.23224,-1.05733 -0.51103,-1.58469 0.5206,-0.38068 0.4902,-0.4654 -0.29546,-0.82337 -0.50215,-0.2288 -0.87577,-0.69624 -0.87577,-1.095681 0,-0.776229 0.0382,-0.806606 5.4494,-4.329899 4.84007,-3.151446 9.22796,-7.302552 10.76259,-10.181818 1.6088501,-3.018503 2.4748701,-7.57649 2.4805901,-13.055682 0.004,-4.155036 -0.0457,-4.482137 -0.78911,-5.157174 -0.43656,-0.396414 -1.2405201,-0.826547 -1.7865701,-0.955852 -0.68417,-0.162013 -1.1089,-0.568084 -1.36621,-1.306211 -0.20536,-0.589112 -0.75078,-1.214597 -1.21204,-1.389967 -0.92714,-0.352497 -1.09458,-1.347195 -0.41104,-2.441728 0.23519,-0.376598 0.33603,-0.776312 0.2241,-0.888251 -0.11194,-0.11194 -1.68715,-0.425157 -3.50047,-0.696039 -3.68392,-0.550321 -4.38894,-1.043976 -4.05125,-2.836689 0.28027,-1.487908 0.97488,-1.951266 5.83493,-3.892382 2.44051,-0.974745 4.4356,-1.9874 4.62958,-2.349851 0.47736,-0.891958 -0.13796,-1.891333 -1.44504,-2.346986 -1.27094,-0.443053 -1.64012,-1.207575 -1.19579,-2.476366 0.31178,-0.890301 0.45678,-0.936181 3.49316,-1.105248 l 3.1678901,-0.176389 -1.74367,-0.881944 C -14.933588,40.0428 -18.132968,33.765305 -17.244388,26.756907 c 1.25695,-9.913854 8.1168601,-15.922641 18.17802006,-15.922641 5.27644004,0 9.15509994,1.467982 12.74052994,4.822006 3.7033,3.464231 5.4275,7.850281 5.4275,13.806393 0,6.063139 -2.9906,10.885214 -8.41455,13.567874 l -1.8881899,0.933878 3.2921099,0.176389 c 3.22503,0.172794 3.29913,0.19654 3.63853,1.165143 0.4224,1.205618 -0.039,2.085189 -1.2421,2.369265 -1.1567,0.27306 -2.03736,1.850745 -1.4369,2.574214 0.2426,0.292326 2.5154,1.363922 5.0508,2.381325 4.2732,1.714764 4.6475,1.940324 5.1276,3.089348 0.3789,0.906786 0.4214,1.451469 0.1582,2.029066 -0.3767,0.826801 -0.7627,0.953026 -4.8146,1.574589 -2.8738,0.440833 -3.3615,0.764745 -2.5317,1.681631 0.8476,0.936623 0.7298,1.797478 -0.2996,2.188856 -0.49,0.186313 -0.9904,0.618947 -1.112,0.961407 -0.3605,1.015915 -1.2359,1.857378 -1.93225,1.857378 -0.35799,0 -0.98629,0.335408 -1.39624,0.745351 -0.71346,0.713464 -0.73824,0.996444 -0.57934,6.614583 0.17585,6.217064 0.79932,9.233511 2.48913,12.042843 1.8518,3.07876 7.538,8.09871 12.5939,11.118298 1.2612,0.753234 2.5709,1.600613 2.9104,1.883063 0.8844,0.735656 0.7613,1.764834 -0.267,2.233384 -0.8366,0.3812 -0.8523,0.43836 -0.2906,1.0591 0.6839,0.75566 0.3668,1.2282 -0.9417,1.40337 -0.7038,0.0942 -0.904,0.34637 -0.9913,1.24829 -0.1694,1.75121 0.4267,2.46229 2.5915,3.09163 1.8306,0.53215 3.3387,1.55364 3.3387,2.26134 0,0.56299 -0.9816,1.13725 -2.6719,1.56321 -2.0763,0.5232 -2.6512,1.29899 -1.9142,2.58315 0.5589,0.97385 0.9921,1.23103 6.3973,3.79793 5.9958,2.84735 6.9974,5.12871 3.7563,8.55562 l -1.0507,1.11089 1.0887,0.23911 c 2.3754,0.52173 3.3339,3.94193 1.8067,6.44675 l -0.6991,1.14653 H 0.96442206 -36.938768 Z m 45.9236901,-4.4052 c 8.8767999,-0.23036 16.1395999,-0.55303 16.1395999,-0.71706 0,-0.43829 -60.37446,-0.37235 -61.03056,0.0667 -0.46706,0.31253 -0.46301,0.40505 0.0345,0.78835 0.70245,0.54117 21.10434,0.47842 44.8564301,-0.13796 z m -21.0784701,-5.95317 c 5.0447301,-0.1807 16.2366001,-0.57619 24.87084,-0.87887 8.63423,-0.30267 16.33363,-0.59811 17.10973,-0.65653 0.7761,-0.0584 -13.2222,-0.13395 -31.1074499,-0.16785 -29.1450301,-0.0552 -32.5760601,-0.004 -33.0729201,0.49273 -0.68543,0.68543 -0.68577,0.67494 0.0459,1.40658 0.5383,0.5383 1.23899,0.5761 6.79097,0.36635 3.40491,-0.12863 10.31825,-0.38171 15.36297,-0.56241 z m 7.3831001,-14.48098 c 6.97113,-0.18976 12.75227,-0.42252 12.84699,-0.51724 0.31348,-0.31347 -35.7424001,-0.16769 -36.2384801,0.14652 -0.2696,0.17076 -0.36851,0.4983 -0.22204,0.7353 0.19806,0.32047 1.59919,0.37147 5.60145,0.2039 2.93552,-0.1229 11.04096,-0.37872 18.0120801,-0.56848 z m -5.7956001,-7.37068 c 5.2053501,-0.25652 4.9892601,-0.27199 -4.49791,-0.3219 -8.84882,-0.0466 -10.43445,0.067 -9.79938,0.70212 0.18462,0.18462 5.94356,0.0315 14.29729,-0.38022 z m 3.8805601,-2.401459 7.93749996,-0.265934 -4.76249996,-0.18079 c -9.7879501,-0.371564 -21.8142201,-0.374858 -22.0421601,-0.006 -0.62624,1.013283 0.31436,1.172123 5.60306,0.946223 2.92963,-0.125142 8.89847,-0.347198 13.2641001,-0.493461 z m -0.90566,-4.667387 c 2.09242,-6.623667 3.00633,-14.274269 2.50459,-20.966574 -0.27812,-3.70954 -0.87438,-4.084383 -0.89261,-0.561139 -0.0383,7.412383 -4.4013001,17.273811 -9.8910401,22.356345 l -2.14439,1.985322 h 4.76726 4.7672601 z M 0.86698206,64.261137 c 0.15738004,-0.146723 -1.74762,-0.373614 -4.23332996,-0.504201 -2.48571,-0.130587 -5.15447,-0.315865 -5.93058,-0.411729 -1.6475101,-0.203499 -2.4954701,0.220376 -2.1647901,1.082126 0.21055,0.54867 0.75587,0.579894 6.1368201,0.351377 3.24816,-0.137941 6.03450996,-0.370849 6.19187996,-0.517573 z M -5.2953679,61.90187 c 2.35879,-0.126831 4.28872,-0.337699 4.28872,-0.468595 0,-0.130896 -2.65906,-0.410707 -5.90903,-0.621802 -4.8160701,-0.312818 -5.9983101,-0.297657 -6.3917401,0.08196 -0.26549,0.256176 -0.37519,0.639758 -0.24376,0.852405 0.27466,0.444417 2.21158,0.481024 8.2558101,0.156028 z m 2.34844,-5.413517 c 6.59695,-0.194447 13.3305899,-0.353441 14.9636599,-0.353321 1.63303,1.2e-4 2.89743,-0.07157 2.80963,-0.159314 -0.088,-0.08774 -7.7654799,-0.398684 -17.0616899,-0.690981 -17.1252401,-0.538462 -17.8213201,-0.511129 -17.8213201,0.699791 0,0.777083 0.9768,1.081619 3.10023,0.966555 1.10828,-0.06005 7.4125501,-0.268283 14.0094901,-0.46273 z M 0.58085206,45.652231 7.6364021,45.386346 3.4030721,45.164187 c -6.79219,-0.356445 -15.6376801,-0.349045 -15.8616001,0.01327 -0.42454,0.686926 1.09033,1.080002 3.5143801,0.911904 1.35819,-0.09419 5.64444,-0.290893 9.52499996,-0.437131 z M -10.759998,34.756619 c -1.23739,-2.503684 -1.35915,-3.004979 -1.35915,-5.595592 0,-2.028852 0.24622,-3.630626 0.85788,-5.580976 0.6185,-1.972166 0.75071,-2.842602 0.47381,-3.119498 -0.2769,-0.276896 -0.55132,-0.128784 -0.98351,0.530809 -3.21996,4.914293 -3.04462,11.671033 0.40755,15.704112 1.9476901,2.27544 2.2330601,1.358506 0.60342,-1.938855 z m 2.4139101,-15.905425 c 1.11387,-1.067154 1.28389,-1.874276 0.39482,-1.874276 -0.80964,0 -2.2276001,1.38649 -2.2276001,2.17816 0,0.911906 0.6817501,0.798867 1.8327801,-0.303884 z"
       id="path1" /></g></svg>
